<svg xmlns="http://www.w3.org/2000/svg" width="265" height="79.859" viewBox="0 0 265 79.859">
  <g id="Amazon_logo" transform="translate(-0.364 -0.246)">
    <path id="path8" d="M212.217,127.546c-15.4,11.351-37.72,17.407-56.938,17.407A103.033,103.033,0,0,1,85.721,118.41c-1.442-1.3-.15-3.08,1.58-2.065A140,140,0,0,0,156.894,134.8a138.385,138.385,0,0,0,53.085-10.855c2.607-1.107,4.787,1.707,2.238,3.6" transform="translate(-47.452 -64.848)" fill="#f90"/>
    <path id="path10" d="M364.054,116.7c-1.961-2.515-13.012-1.188-17.972-.6-1.511.185-1.742-1.13-.381-2.076,8.8-6.194,23.244-4.406,24.928-2.33s-.438,16.565-8.709,23.474c-1.269,1.061-2.48.5-1.915-.911,1.857-4.637,6.021-15.03,4.049-17.557" transform="translate(-192.887 -61.322)" fill="#f90"/>
    <path id="path12" d="M346.545,10.464V4.443a1.486,1.486,0,0,1,1.523-1.523h26.958a1.5,1.5,0,0,1,1.557,1.523V9.6c-.012.865-.738,2-2.03,3.784L360.583,33.327c5.191-.127,10.67.646,15.376,3.3a2.743,2.743,0,0,1,1.43,2.342v6.425c0,.877-.969,1.9-1.984,1.373a31.054,31.054,0,0,0-28.481.046c-.934.508-1.915-.508-1.915-1.384v-6.1A7.281,7.281,0,0,1,346,35.184l16.184-23.209H348.1a1.491,1.491,0,0,1-1.557-1.511" transform="translate(-193.004 -1.498)" fill="#221f1f"/>
    <path id="path14" d="M112.7,47.051h-8.2a1.549,1.549,0,0,1-1.465-1.4V3.563a1.54,1.54,0,0,1,1.58-1.511h7.648a1.545,1.545,0,0,1,1.488,1.407v5.5h.15c2-5.318,5.745-7.8,10.8-7.8,5.133,0,8.34,2.48,10.647,7.8a12.112,12.112,0,0,1,20.821-3.2c2.6,3.541,2.065,8.686,2.065,13.2l-.012,26.566a1.549,1.549,0,0,1-1.58,1.523h-8.19a1.559,1.559,0,0,1-1.477-1.523V23.219c0-1.776.161-6.206-.231-7.89-.611-2.826-2.445-3.622-4.822-3.622a5.448,5.448,0,0,0-4.9,3.449c-.842,2.122-.761,5.675-.761,8.063V45.528a1.549,1.549,0,0,1-1.58,1.523h-8.19A1.55,1.55,0,0,1,125,45.528l-.012-22.309c0-4.695.773-11.6-5.052-11.6-5.895,0-5.664,6.737-5.664,11.6V45.528a1.549,1.549,0,0,1-1.58,1.523" transform="translate(-57.493 -0.514)" fill="#221f1f"/>
    <path id="path16" d="M446.024,1.164c12.17,0,18.756,10.451,18.756,23.74,0,12.839-7.279,23.024-18.756,23.024-11.951,0-18.456-10.451-18.456-23.474,0-13.1,6.587-23.29,18.456-23.29m.069,8.594c-6.044,0-6.425,8.236-6.425,13.369s-.081,16.126,6.356,16.126c6.356,0,6.656-8.859,6.656-14.258,0-3.553-.15-7.8-1.223-11.166-.923-2.93-2.757-4.072-5.364-4.072" transform="translate(-239.236 -0.514)" fill="#221f1f"/>
    <path id="path18" d="M535.719,47.051h-8.167a1.559,1.559,0,0,1-1.476-1.523l-.012-42.1a1.551,1.551,0,0,1,1.58-1.373h7.6a1.57,1.57,0,0,1,1.465,1.177V9.665h.15c2.3-5.756,5.514-8.5,11.178-8.5a10.761,10.761,0,0,1,9.574,4.96c2.146,3.368,2.146,9.032,2.146,13.1v26.5a1.576,1.576,0,0,1-1.58,1.327h-8.225a1.553,1.553,0,0,1-1.453-1.327V22.862c0-4.6.531-11.339-5.133-11.339a5.36,5.36,0,0,0-4.741,3.368,18.629,18.629,0,0,0-1.3,7.971V45.528a1.577,1.577,0,0,1-1.6,1.523" transform="translate(-294.395 -0.514)" fill="#221f1f"/>
    <path id="use28" d="M24.53,26.431V24.655c-5.929,0-12.193,1.269-12.193,8.259,0,3.541,1.834,5.941,4.983,5.941A6.65,6.65,0,0,0,23,35.129c1.615-2.838,1.534-5.5,1.534-8.7M32.8,46.422a1.713,1.713,0,0,1-1.938.2,20.193,20.193,0,0,1-4.706-5.468c-4.5,4.591-7.682,5.964-13.519,5.964-6.9,0-12.274-4.257-12.274-12.781a13.935,13.935,0,0,1,8.744-13.4c4.453-1.961,10.67-2.307,15.423-2.849V17.018c0-1.949.15-4.257-.992-5.941a5.488,5.488,0,0,0-4.6-2.134c-3.126,0-5.918,1.6-6.6,4.926a1.716,1.716,0,0,1-1.419,1.5l-7.959-.854A1.453,1.453,0,0,1,1.737,12.8C3.571,3.153,12.28.246,20.078.246c3.991,0,9.205,1.061,12.354,4.083,3.991,3.726,3.611,8.7,3.611,14.108V31.218c0,3.841,1.592,5.525,3.091,7.6A1.541,1.541,0,0,1,39.111,41c-1.673,1.4-4.649,3.991-6.287,5.445l-.023-.023" transform="translate(107.52 0)" fill="#221f1f"/>
    <path id="path30" d="M24.53,26.431V24.655c-5.929,0-12.193,1.269-12.193,8.259,0,3.541,1.834,5.941,4.983,5.941A6.65,6.65,0,0,0,23,35.129c1.615-2.838,1.534-5.5,1.534-8.7M32.8,46.422a1.713,1.713,0,0,1-1.938.2,20.193,20.193,0,0,1-4.706-5.468c-4.5,4.591-7.682,5.964-13.519,5.964-6.9,0-12.274-4.257-12.274-12.781a13.935,13.935,0,0,1,8.744-13.4c4.453-1.961,10.67-2.307,15.423-2.849V17.018c0-1.949.15-4.257-.992-5.941a5.488,5.488,0,0,0-4.6-2.134c-3.126,0-5.918,1.6-6.6,4.926a1.716,1.716,0,0,1-1.419,1.5l-7.959-.854A1.453,1.453,0,0,1,1.737,12.8C3.571,3.153,12.28.246,20.078.246c3.991,0,9.205,1.061,12.354,4.083,3.991,3.726,3.611,8.7,3.611,14.108V31.218c0,3.841,1.592,5.525,3.091,7.6A1.541,1.541,0,0,1,39.111,41c-1.673,1.4-4.649,3.991-6.287,5.445l-.023-.023" transform="translate(0 0)" fill="#221f1f"/>
  </g>
</svg>
