<svg xmlns="http://www.w3.org/2000/svg" width="134" height="134" viewBox="0 0 134 134">
  <g id="Group_180" data-name="Group 180" transform="translate(2841.303 474.197)">
    <g id="Group_18" data-name="Group 18" transform="translate(-2841.303 -474.197)">
      <circle id="Ellipse_1289" data-name="Ellipse 1289" cx="67" cy="67" r="67" fill="#fff"/>
      <circle id="Ellipse_1290" data-name="Ellipse 1290" cx="65.99" cy="65.99" r="65.99" transform="translate(1.206 1.222)" fill="none" stroke="#f8f8f8" stroke-width="1"/>
    </g>
    <path id="Path_97" data-name="Path 97" d="M739.713,443.692a1.538,1.538,0,0,0-2.153.305l-13.841,18.432a1.536,1.536,0,0,0,.307,2.15l18.432,13.843a1.542,1.542,0,0,0,2.152-.305A24.615,24.615,0,0,0,739.713,443.692Zm3.318,31.317L727.1,463.045l11.961-15.93A21.546,21.546,0,0,1,743.031,475.009Z" transform="translate(-3492.97 -868.554)" fill="#f54f6d"/>
    <path id="Path_98" data-name="Path 98" d="M720.164,462.081a1.594,1.594,0,0,0,.6.033,1.551,1.551,0,0,0,1.013-.6l13.839-18.431a1.533,1.533,0,0,0-.305-2.152,24.428,24.428,0,0,0-18.225-4.682,1.539,1.539,0,0,0-1.308,1.738l3.249,22.819A1.54,1.54,0,0,0,720.164,462.081ZM732.2,442.51,721.547,456.7l-2.5-17.572A21.3,21.3,0,0,1,732.2,442.51Z" transform="translate(-3495.519 -869.219)" fill="#f54f6d"/>
    <path id="Path_99" data-name="Path 99" d="M723.007,464.511,719.85,442.32a1.535,1.535,0,0,0-1.737-1.3,24.587,24.587,0,1,0,23.125,39.108,1.542,1.542,0,0,0-.307-2.154Z" transform="translate(-3501.769 -869.799)" fill="#f54f6d"/>
  </g>
</svg>
