<svg xmlns="http://www.w3.org/2000/svg" width="134" height="134.046" viewBox="0 0 134 134.046">
  <g id="Group_200" data-name="Group 200" transform="translate(2308.303 532.027)">
    <g id="Group_181" data-name="Group 181">
      <g id="Group_19" data-name="Group 19" transform="translate(-2308.303 -532.027)">
        <circle id="Ellipse_1291" data-name="Ellipse 1291" cx="67" cy="67" r="67" fill="#fff"/>
        <circle id="Ellipse_1292" data-name="Ellipse 1292" cx="65.99" cy="65.99" r="65.99" transform="translate(1.46 1.566)" fill="none" stroke="#f8f8f8" stroke-width="1"/>
      </g>
    </g>
    <path id="Path_661" data-name="Path 661" d="M650.015,399l-49.529.012a1.5,1.5,0,0,0,0,2.994l9.805,0v48.132a1.368,1.368,0,0,0,.821,1.255,1.352,1.352,0,0,0,1.468-.267l13.28-12.753,13.281,12.753a1.352,1.352,0,0,0,.934.377,1.349,1.349,0,0,0,1.354-1.363V402l8.585,0a1.5,1.5,0,0,0,0-3Z" transform="translate(-2866.103 -878.022)" fill="#0f358e"/>
  </g>
</svg>
