<svg id="Instagram" xmlns="http://www.w3.org/2000/svg" width="26.594" height="26.594" viewBox="0 0 26.594 26.594">
  <path id="Shape" d="M10.222,12.516H2.294A2.3,2.3,0,0,1,0,10.222V2.294A2.3,2.3,0,0,1,2.294,0h7.927a2.3,2.3,0,0,1,2.294,2.294v7.927A2.3,2.3,0,0,1,10.222,12.516ZM6.258,2.137a4.12,4.12,0,1,0,4.12,4.121A4.125,4.125,0,0,0,6.258,2.137Zm4.253-1.1a.974.974,0,1,0,.974.974A.976.976,0,0,0,10.511,1.04Z" transform="translate(7.04 7.076)" fill="#709be7"/>
  <path id="Shape-2" data-name="Shape" d="M2.379,0A2.379,2.379,0,1,0,4.758,2.379,2.382,2.382,0,0,0,2.379,0Z" transform="translate(10.918 10.954)" fill="#709be7"/>
  <path id="Shape-3" data-name="Shape" d="M13.3,26.594a13.3,13.3,0,1,1,13.3-13.3A13.312,13.312,0,0,1,13.3,26.594ZM9.335,5.334A4.04,4.04,0,0,0,5.3,9.37V17.3a4.04,4.04,0,0,0,4.036,4.036h7.926A4.04,4.04,0,0,0,21.3,17.3V9.37a4.04,4.04,0,0,0-4.036-4.036Z" transform="translate(0)" fill="#709be7"/>
</svg>
