<svg id="Pinterest" xmlns="http://www.w3.org/2000/svg" width="26.477" height="26.477" viewBox="0 0 26.477 26.477">
  <circle id="Oval" cx="13.238" cy="13.238" r="13.238" transform="translate(0)" fill="#709be7"/>
  <path id="Shape" d="M7.464,11.924a4.477,4.477,0,0,1-2.206-1.05c-.431,2.263-.959,4.433-2.52,5.566C2.255,13.02,3.445,10.45,4,7.723c-.942-1.586.113-4.778,2.1-3.991,2.446.967-2.117,5.9.946,6.512,3.2.643,4.5-5.549,2.52-7.563C6.7-.226,1.223,2.615,1.9,6.778,2.06,7.8,3.112,8.1,2.316,9.508.483,9.1-.064,7.656.006,5.727A6.171,6.171,0,0,1,5.573.055c3.454-.387,6.7,1.268,7.143,4.517.5,3.667-1.559,7.637-5.252,7.352Z" transform="translate(6.843 5.803)" fill="#132d6c"/>
</svg>
