<svg id="Twitter" xmlns="http://www.w3.org/2000/svg" width="26.477" height="26.477" viewBox="0 0 26.477 26.477">
  <circle id="Oval" cx="13.238" cy="13.238" r="13.238" transform="translate(0)" fill="#709be7"/>
  <path id="Shape" d="M15.424,1.484a6.313,6.313,0,0,1-1.818.5A3.173,3.173,0,0,0,15,.231,6.335,6.335,0,0,1,12.988,1,3.167,3.167,0,0,0,7.6,3.886,8.983,8.983,0,0,1,1.074.579,3.168,3.168,0,0,0,2.053,4.8a3.142,3.142,0,0,1-1.433-.4c0,.013,0,.027,0,.04a3.166,3.166,0,0,0,2.539,3.1A3.177,3.177,0,0,1,1.729,7.6,3.168,3.168,0,0,0,4.685,9.8a6.349,6.349,0,0,1-3.93,1.355A6.372,6.372,0,0,1,0,11.113a8.951,8.951,0,0,0,4.85,1.422,8.942,8.942,0,0,0,9-9c0-.137,0-.274-.009-.409a6.417,6.417,0,0,0,1.579-1.638Z" transform="translate(6.667 8)" fill="#132d6c"/>
</svg>
