<svg id="Vk" xmlns="http://www.w3.org/2000/svg" width="26.477" height="26.477" viewBox="0 0 26.477 26.477">
  <circle id="XMLID_11_" cx="13.238" cy="13.238" r="13.238" fill="#709be7"/>
  <path id="Shape" d="M8.5,9.875H9.544a.877.877,0,0,0,.474-.207.76.76,0,0,0,.143-.456s-.02-1.394.627-1.6,1.457,1.347,2.325,1.943a1.645,1.645,0,0,0,1.155.352l2.321-.032s1.214-.075.639-1.03a7.757,7.757,0,0,0-1.726-2c-1.456-1.351-1.261-1.133.493-3.469C17.063,1.956,17.49,1.087,17.356.715c-.127-.354-.913-.261-.913-.261L13.83.47a.593.593,0,0,0-.337.059.732.732,0,0,0-.231.281A15.134,15.134,0,0,1,12.3,2.848c-1.164,1.976-1.629,2.081-1.819,1.958-.442-.286-.332-1.149-.332-1.762,0-1.915.291-2.714-.566-2.921A4.463,4.463,0,0,0,8.359,0,5.634,5.634,0,0,0,6.19.224c-.3.146-.527.47-.387.489a1.173,1.173,0,0,1,.771.388,2.522,2.522,0,0,1,.258,1.183s.154,2.255-.359,2.535c-.352.192-.836-.2-1.873-1.993A16.668,16.668,0,0,1,3.667.891.777.777,0,0,0,3.452.6a1.083,1.083,0,0,0-.4-.162L.566.454S.194.465.057.627c-.122.144-.01.442-.01.442S1.992,5.619,4.193,7.911A5.964,5.964,0,0,0,8.5,9.875Z" transform="translate(4.234 9.169)" fill="#132d6c"/>
</svg>
