<svg xmlns="http://www.w3.org/2000/svg" width="159.667" height="159.667" viewBox="0 0 159.667 159.667">
  <g id="Group_168" data-name="Group 168" transform="translate(0.5 0.5)">
    <circle id="Ellipse_2910" data-name="Ellipse 2910" cx="79.333" cy="79.333" r="79.333" fill="#fff" stroke="#f54b15" stroke-width="1" opacity="0.8"/>
    <path id="Path_385" data-name="Path 385" d="M300.595,268.251a1.767,1.767,0,0,0-1.349-.629h-5.256V256.555a1.754,1.754,0,0,0-1.752-1.755H236.16a1.754,1.754,0,0,0-1.751,1.755v4.976h-5.257a1.753,1.753,0,0,0-1.729,2.027l7.009,41.587a1.751,1.751,0,0,0,1.729,1.48h56.076a1.759,1.759,0,0,0,1.727-1.436l7.009-35.5A1.775,1.775,0,0,0,300.595,268.251Zm-62.681-9.943h52.571v9.313H256l-8.328-5.776a1.74,1.74,0,0,0-1-.315h-8.761Zm52.865,44.812h-53.12L231.2,265.037h14.923l8.328,5.775a1.741,1.741,0,0,0,1,.315H297.14Z" transform="translate(-184.867 -201.067)" fill="#ffc997"/>
    <path id="Path_386" data-name="Path 386" d="M290.762,302.4H235.336L228.6,260.8h15.571l8.689,6.308a1.762,1.762,0,0,0,1.043.343h43.5Z" transform="translate(-184.466 -199.067)" fill="#f54b15"/>
  </g>
</svg>
