<svg xmlns="http://www.w3.org/2000/svg" width="159.667" height="159.667" viewBox="0 0 159.667 159.667">
  <g id="Group_190" data-name="Group 190" transform="translate(0.5 0.5)">
    <circle id="Ellipse_2912" data-name="Ellipse 2912" cx="79.333" cy="79.333" r="79.333" fill="#fff" stroke="#0085f7" stroke-width="1" opacity="0.8"/>
    <path id="Path_391" data-name="Path 391" d="M910.175,250H858.227A10.839,10.839,0,0,0,847.4,260.825v32.757a10.838,10.838,0,0,0,10.827,10.825h17.252c-.179,2.843-.663,6.456-1.641,7.487a1.418,1.418,0,0,1-1.095.5h-4.872a1.5,1.5,0,1,0,0,3h32.66a1.5,1.5,0,0,0,0-3h-4.844a1.419,1.419,0,0,1-1.095-.5c-.976-1.031-1.46-4.644-1.64-7.487h17.223A10.837,10.837,0,0,0,921,293.583V260.825A10.836,10.836,0,0,0,910.175,250Zm-51.948,3.5h51.949a7.337,7.337,0,0,1,7.329,7.331v28.016H850.9V260.827A7.338,7.338,0,0,1,858.227,253.5Z" transform="translate(-804.867 -202.667)" fill="#0085f7"/>
  </g>
</svg>
