<svg xmlns="http://www.w3.org/2000/svg" width="159.667" height="159.667" viewBox="0 0 159.667 159.667">
  <g id="Group_187" data-name="Group 187" transform="translate(6184.5 388.906)">
    <g id="Group_77" data-name="Group 77" transform="translate(-6184 -388.406)">
      <circle id="Ellipse_2911" data-name="Ellipse 2911" cx="79.333" cy="79.333" r="79.333" fill="none" stroke="#ff4bc1" stroke-width="1" opacity="0.8"/>
    </g>
    <g id="Group_170" data-name="Group 170">
      <g id="Group_169" data-name="Group 169" transform="translate(-2037 -3062.063)">
        <circle id="Ellipse_2907" data-name="Ellipse 2907" cx="70" cy="70" r="70" transform="translate(-4137 2683.063)" fill="#fff" opacity="0.8"/>
        <path id="Path_270" data-name="Path 270" d="M1171.739,290.851h-6.2a3.541,3.541,0,0,0-3.538,3.54v13.742a3.543,3.543,0,0,0,3.538,3.537h6.2a3.543,3.543,0,0,0,3.538-3.537V294.391A3.541,3.541,0,0,0,1171.739,290.851Zm.479,17.28a.478.478,0,0,1-.479.482h-6.2a.486.486,0,0,1-.479-.482V294.389a.481.481,0,0,1,.479-.478h6.2a.474.474,0,0,1,.479.478Z" transform="translate(-5256.96 2457.3)" fill="#ff00a7"/>
        <path id="Path_271" data-name="Path 271" d="M1190.659,281.07h-6.2a3.548,3.548,0,0,0-3.538,3.544v13.744a3.537,3.537,0,0,0,3.538,3.535h6.2a3.538,3.538,0,0,0,3.538-3.535V284.614A3.549,3.549,0,0,0,1190.659,281.07Zm.491,17.288a.493.493,0,0,1-.491.482h-6.2a.49.49,0,0,1-.479-.482V284.614a.488.488,0,0,1,.479-.485h6.2a.491.491,0,0,1,.491.485v13.744Z" transform="translate(-5253.785 2455.659)" fill="#ff00a7"/>
        <path id="Path_272" data-name="Path 272" d="M1207.839,290.851h-6.2a3.542,3.542,0,0,0-3.538,3.54v13.742a3.543,3.543,0,0,0,3.538,3.537h6.2a3.546,3.546,0,0,0,3.55-3.537V294.391A3.544,3.544,0,0,0,1207.839,290.851Zm.479,17.28a.478.478,0,0,1-.479.482h-6.2a.486.486,0,0,1-.479-.482V294.389a.481.481,0,0,1,.479-.478h6.2a.474.474,0,0,1,.479.478Z" transform="translate(-5250.903 2457.3)" fill="#ff00a7"/>
        <path id="Path_273" data-name="Path 273" d="M1204.01,290.426a1.53,1.53,0,0,0,1.53-1.53V276.307a1.53,1.53,0,1,0-3.059,0V288.9A1.523,1.523,0,0,0,1204.01,290.426Z" transform="translate(-5250.168 2454.602)" fill="#ff00a7"/>
        <path id="Path_274" data-name="Path 274" d="M1204.01,311.354a1.522,1.522,0,0,0-1.53,1.526v12.592a1.53,1.53,0,1,0,3.059,0V312.88A1.53,1.53,0,0,0,1204.01,311.354Z" transform="translate(-5250.168 2460.74)" fill="#ff00a7"/>
        <path id="Path_275" data-name="Path 275" d="M1186.83,280.656a1.537,1.537,0,0,0,1.53-1.533v-12.6a1.53,1.53,0,0,0-3.06,0v12.6A1.537,1.537,0,0,0,1186.83,280.656Z" transform="translate(-5253.051 2452.962)" fill="#ff00a7"/>
        <path id="Path_276" data-name="Path 276" d="M1186.83,301.577a1.529,1.529,0,0,0-1.53,1.525v12.6a1.53,1.53,0,0,0,3.06,0V303.1A1.529,1.529,0,0,0,1186.83,301.577Z" transform="translate(-5253.051 2459.099)" fill="#ff00a7"/>
        <path id="Path_277" data-name="Path 277" d="M1167.91,290.672a1.527,1.527,0,0,0,1.53-1.523v-12.6a1.53,1.53,0,0,0-3.06,0v12.6A1.527,1.527,0,0,0,1167.91,290.672Z" transform="translate(-5256.225 2454.645)" fill="#ff00a7"/>
        <path id="Path_278" data-name="Path 278" d="M1167.91,311.6a1.537,1.537,0,0,0-1.53,1.534v12.592a1.53,1.53,0,0,0,3.06,0V313.13A1.537,1.537,0,0,0,1167.91,311.6Z" transform="translate(-5256.225 2460.781)" fill="#ff00a7"/>
      </g>
    </g>
  </g>
</svg>

