<svg xmlns="http://www.w3.org/2000/svg" width="159.667" height="159.667" viewBox="0 0 159.667 159.667">
  <g id="Group_161" data-name="Group 161" transform="translate(1240.12 0.773)">
    <path id="Path_655" data-name="Path 655" d="M1211.573,248a5.3,5.3,0,0,0-3.333,1.356l-21.053,14.151H1173.16a7.166,7.166,0,0,0-7.16,7.153v23.365a7.165,7.165,0,0,0,7.16,7.153h14.013l21.107,14.207a5.246,5.246,0,0,0,3.347,1.4,3.551,3.551,0,0,0,2.987-1.627,5.665,5.665,0,0,0,.813-3.173V252.829C1215.44,249.492,1213.493,248,1211.573,248Zm-.227,63.988a.318.318,0,1,1-.493.219c-.067-.053-.12-.1-.187-.153l-20.813-14.008V266.639l7.373-4.957v20.713a1.867,1.867,0,1,0,3.733,0V260.425a1.737,1.737,0,0,0-.347-1.023l9.987-6.708a1.269,1.269,0,0,0,.173-.131,3.105,3.105,0,0,1,.52-.36,3.457,3.457,0,0,1,.053.627v59.157Z" transform="translate(-2351 -203.06)" fill="#00bf65"/>
    <circle id="Ellipse_6435" data-name="Ellipse 6435" cx="79.333" cy="79.333" r="79.333" transform="translate(-1239.62 -0.273)" fill="none" stroke="#00bf65" stroke-width="1" opacity="0.8"/>
  </g>
</svg>
