<svg xmlns="http://www.w3.org/2000/svg" width="159.667" height="159.667" viewBox="0 0 159.667 159.667">
  <g id="Group_195" data-name="Group 195" transform="translate(-8149.833 -3327.436)">
    <g id="Group_163" data-name="Group 163" transform="translate(8150.333 3327.936)">
      <circle id="Ellipse_2911" data-name="Ellipse 2911" cx="79.333" cy="79.333" r="79.333" fill="#fff" stroke="#0f358e" stroke-width="1" opacity="0.8"/>
    </g>
    <path id="Path_658" data-name="Path 658" d="M657.7,399l-56.992.014a1.723,1.723,0,0,0,0,3.445l11.283,0V457.84a1.574,1.574,0,0,0,.945,1.445,1.556,1.556,0,0,0,1.69-.307L629.907,444.3l15.282,14.675a1.556,1.556,0,0,0,1.075.433,1.553,1.553,0,0,0,1.558-1.569V402.449l9.879,0a1.724,1.724,0,0,0,0-3.447Z" transform="translate(7599.794 2984.525)" fill="#0f358e"/>
  </g>
</svg>
