<svg xmlns="http://www.w3.org/2000/svg" width="159.667" height="159.667" viewBox="0 0 159.667 159.667">
  <g id="Group_198" data-name="Group 198" transform="translate(5563.834 213.906)">
    <g id="Group_165" data-name="Group 165" transform="translate(-5563.334 -213.406)">
      <g id="Group_176" data-name="Group 176">
        <circle id="Ellipse_2911" data-name="Ellipse 2911" cx="79.333" cy="79.333" r="79.333" fill="#fff" stroke="#a225d0" stroke-width="1" opacity="0.8"/>
      </g>
    </g>
    <g id="Group_197" data-name="Group 197" transform="translate(-488.015 -2884.998)">
      <path id="Path_258" data-name="Path 258" d="M264.425,265a38.425,38.425,0,1,0,38.425,38.419A38.467,38.467,0,0,0,264.425,265Zm0,73.19a34.765,34.765,0,1,1,34.765-34.77A34.808,34.808,0,0,1,264.425,338.19Z" transform="translate(-5260.5 2450.5)" fill="#a225d0"/>
      <path id="Path_259" data-name="Path 259" d="M265.731,290.532a3.659,3.659,0,1,0-3.659-3.658A3.659,3.659,0,0,0,265.731,290.532Z" transform="translate(-5250.37 2455.615)" fill="#a225d0"/>
      <path id="Path_260" data-name="Path 260" d="M247.874,290.532a3.659,3.659,0,1,0-3.658-3.658A3.659,3.659,0,0,0,247.874,290.532Z" transform="translate(-5255.385 2455.615)" fill="#a225d0"/>
      <path id="Path_261" data-name="Path 261" d="M276.361,299.341a1.827,1.827,0,0,0-2.216,1.331,14.582,14.582,0,0,1-28.47,0,1.829,1.829,0,0,0-3.549.886,18.24,18.24,0,0,0,35.572,0A1.833,1.833,0,0,0,276.361,299.341Z" transform="translate(-5255.987 2460.128)" fill="#a225d0"/>
    </g>
  </g>
</svg>
